M48
; DRILL file {KiCad 5.1.9-1.fc33} date Sun Feb 14 12:50:56 2021
; FORMAT={-:-/ absolute / inch / decimal}
; #@! TF.CreationDate,2021-02-14T12:50:56-05:00
; #@! TF.GenerationSoftware,Kicad,Pcbnew,5.1.9-1.fc33
FMAT,2
INCH
T1C0.0118
T2C0.0315
T3C0.0394
T4C0.0400
T5C0.0787
T6C0.1102
%
G90
G05
T1
X8.0106Y-5.3189
X8.0193Y-3.6063
X8.0209Y-4.1827
X8.0209Y-4.7925
X8.1201Y-5.8165
X8.3858Y-4.1827
X8.5563Y-4.7031
X8.6957Y-4.1827
X8.8031Y-5.8106
X8.8071Y-4.8425
X8.8134Y-3.7598
X8.8303Y-4.7713
X8.835Y-3.6894
X8.8398Y-4.0087
X8.8398Y-4.2634
X8.8417Y-4.528
X8.9043Y-3.6598
X8.9055Y-4.3945
X8.9067Y-3.9201
X8.9067Y-4.1209
X8.9732Y-4.2252
X8.9732Y-4.4622
X8.9744Y-4.0248
X8.9764Y-3.8272
X8.9803Y-4.6744
X8.9961Y-4.7933
X8.9984Y-4.8992
X9.002Y-5.0008
X9.0831Y-4.6795
X9.339Y-5.272
X9.4346Y-5.7862
X9.4709Y-5.2717
X9.4972Y-3.6539
X9.5295Y-4.4909
X9.5614Y-5.274
X9.5618Y-4.7268
X9.5638Y-4.8433
X9.6551Y-4.6965
X9.6709Y-5.2823
X9.6768Y-4.9937
X9.7398Y-4.702
X9.7732Y-4.9945
X9.7772Y-5.2846
X9.8461Y-4.5622
X9.8717Y-4.9937
X9.8756Y-5.2854
X9.9516Y-3.6539
X9.9748Y-5.2835
X9.9803Y-4.5602
X9.9803Y-4.9945
X10.0252Y-5.7803
X10.0669Y-5.3118
X10.076Y-4.5594
X10.076Y-4.9945
X10.0894Y-5.2642
X10.1291Y-5.5744
X10.1717Y-4.9945
X10.172Y-5.2988
X10.1756Y-4.5594
X10.2465Y-5.3106
X10.2701Y-4.5602
X10.272Y-4.9945
X10.3661Y-4.7268
X10.4252Y-5.2917
X10.4346Y-5.5705
X10.4382Y-4.8433
X10.5126Y-3.6539
X10.5543Y-5.3657
X10.6618Y-5.4039
X10.7028Y-5.7835
X10.8913Y-4.6197
X11.0315Y-3.6555
X11.263Y-5.7803
X11.2673Y-5.0185
X11.2693Y-4.6213
X11.2709Y-3.9862
T2
X8.1453Y-5.1606
X8.1614Y-4.0732
X8.3421Y-5.1606
X8.3583Y-4.0732
X8.4476Y-5.4441
X8.4476Y-5.6409
X8.4709Y-5.1626
X8.7709Y-5.1626
T3
X8.2142Y-3.7039
X8.2142Y-3.8039
X8.2142Y-4.8
X8.2142Y-4.9
X8.2197Y-5.4898
X8.2197Y-5.5898
X8.3142Y-3.7039
X8.3142Y-3.8039
X8.3142Y-4.8
X8.3142Y-4.9
X8.4142Y-3.7039
X8.4142Y-3.8039
X8.4142Y-4.8
X8.4142Y-4.9
X8.5142Y-3.7039
X8.5142Y-3.8039
X8.5142Y-4.8
X8.5142Y-4.9
X8.6142Y-3.7039
X8.6142Y-3.8039
X8.6142Y-4.8
X8.6142Y-4.9
X8.6787Y-5.5362
X8.7142Y-3.7039
X8.7142Y-3.8039
X8.7142Y-4.8
X8.7142Y-4.9
X8.8756Y-5.5362
X9.2142Y-4.0039
X9.3142Y-4.0039
X9.3846Y-5.5209
X9.3846Y-5.6209
X9.4142Y-4.0039
X9.4846Y-5.5209
X9.4846Y-5.6209
X9.5142Y-4.0039
X9.5846Y-5.5209
X9.5846Y-5.6209
X9.6142Y-4.0039
X9.6846Y-5.5209
X9.6846Y-5.6209
X9.7142Y-4.0039
X9.7846Y-5.5209
X9.7846Y-5.6209
X9.8846Y-5.5209
X9.8846Y-5.6209
X9.9846Y-5.5209
X9.9846Y-5.6209
X10.0846Y-5.5209
X10.0846Y-5.6209
X10.1846Y-5.5209
X10.1846Y-5.6209
X10.2846Y-5.5209
X10.2846Y-5.6209
X10.3142Y-4.0039
X10.3846Y-5.5209
X10.3846Y-5.6209
X10.4142Y-4.0039
X10.4846Y-5.5209
X10.4846Y-5.6209
X10.5142Y-4.0039
X10.5846Y-5.5209
X10.5846Y-5.6209
X10.6142Y-4.0039
X10.6846Y-5.5209
X10.6846Y-5.6209
X10.7142Y-4.0039
X10.7846Y-5.5209
X10.7846Y-5.6209
X10.8142Y-4.0039
X10.8846Y-5.5209
X10.8846Y-5.6209
X10.9846Y-5.5209
X10.9846Y-5.6209
X11.0846Y-5.5209
X11.0846Y-5.6209
X11.1846Y-5.5209
X11.1846Y-5.6209
X11.2846Y-5.5209
X11.2846Y-5.6209
T4
X9.173Y-4.5498
X9.173Y-4.6498
X9.173Y-4.7498
X9.173Y-4.8498
X9.173Y-4.9498
X9.173Y-5.0498
X9.273Y-4.5498
X9.273Y-4.6498
X9.273Y-4.7498
X9.273Y-4.8498
X9.273Y-4.9498
X9.273Y-5.0498
X9.373Y-4.3998
X9.373Y-5.1998
X9.473Y-4.3998
X9.473Y-5.1998
X9.573Y-4.3998
X9.573Y-5.1998
X9.673Y-4.3998
X9.673Y-5.1998
X9.773Y-4.3998
X9.773Y-5.1998
X9.873Y-4.3998
X9.873Y-5.1998
X9.973Y-4.3998
X9.973Y-5.1998
X10.073Y-4.3998
X10.073Y-5.1998
X10.173Y-4.3998
X10.173Y-5.0998
X10.173Y-5.1998
X10.273Y-4.3998
X10.273Y-5.0998
X10.273Y-5.1998
X10.373Y-4.3998
X10.373Y-5.0998
X10.373Y-5.1998
X10.473Y-4.3998
X10.473Y-4.4998
X10.473Y-5.0998
X10.473Y-5.1998
X10.573Y-4.3998
X10.573Y-4.4998
X10.573Y-5.0998
X10.573Y-5.1998
X10.673Y-4.3998
X10.673Y-4.4998
X10.673Y-5.0998
X10.673Y-5.1998
T5
X9.211Y-4.3898
X9.211Y-5.2102
X11.47Y-4.3898
X11.47Y-5.2102
T6
X9.1929Y-3.6417
X9.1929Y-5.5709
X11.4764Y-3.6417
X11.4764Y-5.5709
T0
M30
