G04 #@! TF.GenerationSoftware,KiCad,Pcbnew,5.1.9-1.fc33*
G04 #@! TF.CreationDate,2021-02-14T12:50:59-05:00*
G04 #@! TF.ProjectId,cyc1000_pidp-11_shim,63796331-3030-4305-9f70-6964702d3131,1*
G04 #@! TF.SameCoordinates,Original*
G04 #@! TF.FileFunction,Soldermask,Bot*
G04 #@! TF.FilePolarity,Negative*
%FSLAX46Y46*%
G04 Gerber Fmt 4.6, Leading zero omitted, Abs format (unit mm)*
G04 Created by KiCad (PCBNEW 5.1.9-1.fc33) date 2021-02-14 12:50:59*
%MOMM*%
%LPD*%
G01*
G04 APERTURE LIST*
%ADD10C,2.000000*%
%ADD11C,1.778000*%
%ADD12R,1.778000X1.778000*%
%ADD13R,1.700000X1.700000*%
%ADD14O,1.700000X1.700000*%
%ADD15C,2.800000*%
%ADD16R,2.000000X2.000000*%
%ADD17C,1.600000*%
%ADD18O,1.600000X1.600000*%
G04 APERTURE END LIST*
D10*
X291338366Y-132340308D03*
X233959766Y-132340308D03*
X233959766Y-111501894D03*
X291338366Y-111501894D03*
D11*
X232994566Y-128265894D03*
X232994566Y-125725894D03*
X232994566Y-123185894D03*
X232994566Y-120645894D03*
X232994566Y-118105894D03*
X232994566Y-115565894D03*
X235534566Y-128265894D03*
X235534566Y-125725894D03*
X235534566Y-123185894D03*
X235534566Y-120645894D03*
X235534566Y-118105894D03*
X235534566Y-115565894D03*
X238074566Y-132075894D03*
X240614566Y-132075894D03*
X243154566Y-132075894D03*
X245694566Y-132075894D03*
X248234566Y-132075894D03*
X250774566Y-132075894D03*
X253314566Y-132075894D03*
X255854566Y-132075894D03*
X258394566Y-132075894D03*
X260934566Y-132075894D03*
X263474566Y-132075894D03*
X266014566Y-132075894D03*
X268554566Y-132075894D03*
X271094566Y-132075894D03*
X258394566Y-129535894D03*
X260934566Y-129535894D03*
X263474566Y-129535894D03*
X266014566Y-129535894D03*
X268554566Y-129535894D03*
X271094566Y-129535894D03*
X266014566Y-114295894D03*
X268554566Y-114295894D03*
X271094566Y-114295894D03*
X238074566Y-111755894D03*
X240614566Y-111755894D03*
X243154566Y-111755894D03*
X245694566Y-111755894D03*
X248234566Y-111755894D03*
X250774566Y-111755894D03*
X253314566Y-111755894D03*
X255854566Y-111755894D03*
X258394566Y-111755894D03*
X260934566Y-111755894D03*
X263474566Y-111755894D03*
X266014566Y-111755894D03*
D12*
X271094566Y-111755894D03*
D11*
X268554566Y-111755894D03*
D13*
X274680000Y-101700000D03*
D14*
X272140000Y-101700000D03*
X269600000Y-101700000D03*
X267060000Y-101700000D03*
X264520000Y-101700000D03*
X261980000Y-101700000D03*
D13*
X221340000Y-121920000D03*
D14*
X221340000Y-124460000D03*
X218800000Y-121920000D03*
X218800000Y-124460000D03*
X216260000Y-121920000D03*
X216260000Y-124460000D03*
X213720000Y-121920000D03*
X213720000Y-124460000D03*
X211180000Y-121920000D03*
X211180000Y-124460000D03*
X208640000Y-121920000D03*
X208640000Y-124460000D03*
D15*
X233500000Y-92500000D03*
X291500000Y-92500000D03*
X233500000Y-141500000D03*
X291500000Y-141500000D03*
D16*
X220440000Y-140620000D03*
D10*
X225440000Y-140620000D03*
D17*
X214570000Y-143280000D03*
X214570000Y-138280000D03*
D13*
X208780000Y-141980000D03*
D14*
X208780000Y-139440000D03*
D13*
X238370000Y-140230000D03*
D14*
X238370000Y-142770000D03*
X240910000Y-140230000D03*
X240910000Y-142770000D03*
X243450000Y-140230000D03*
X243450000Y-142770000D03*
X245990000Y-140230000D03*
X245990000Y-142770000D03*
X248530000Y-140230000D03*
X248530000Y-142770000D03*
X251070000Y-140230000D03*
X251070000Y-142770000D03*
X253610000Y-140230000D03*
X253610000Y-142770000D03*
X256150000Y-140230000D03*
X256150000Y-142770000D03*
X258690000Y-140230000D03*
X258690000Y-142770000D03*
X261230000Y-140230000D03*
X261230000Y-142770000D03*
X263770000Y-140230000D03*
X263770000Y-142770000D03*
X266310000Y-140230000D03*
X266310000Y-142770000D03*
X268850000Y-140230000D03*
X268850000Y-142770000D03*
X271390000Y-140230000D03*
X271390000Y-142770000D03*
X273930000Y-140230000D03*
X273930000Y-142770000D03*
X276470000Y-140230000D03*
X276470000Y-142770000D03*
X279010000Y-140230000D03*
X279010000Y-142770000D03*
X281550000Y-140230000D03*
X281550000Y-142770000D03*
X284090000Y-140230000D03*
X284090000Y-142770000D03*
X286630000Y-140230000D03*
X286630000Y-142770000D03*
D17*
X222780000Y-131130000D03*
D18*
X215160000Y-131130000D03*
D14*
X208640000Y-96620000D03*
X208640000Y-94080000D03*
X211180000Y-96620000D03*
X211180000Y-94080000D03*
X213720000Y-96620000D03*
X213720000Y-94080000D03*
X216260000Y-96620000D03*
X216260000Y-94080000D03*
X218800000Y-96620000D03*
X218800000Y-94080000D03*
X221340000Y-96620000D03*
D13*
X221340000Y-94080000D03*
D14*
X234040000Y-101700000D03*
X236580000Y-101700000D03*
X239120000Y-101700000D03*
X241660000Y-101700000D03*
X244200000Y-101700000D03*
D13*
X246740000Y-101700000D03*
D17*
X207300000Y-103460000D03*
X212300000Y-103460000D03*
X211890000Y-131080000D03*
X206890000Y-131080000D03*
M02*
